<svg width="781" height="224" viewBox="0 0 781 224" fill="none" xmlns="http://www.w3.org/2000/svg">
<path d="M141.377 112.489C141.377 92.4276 156.136 76.2353 177.201 76.2353C197.835 76.2353 211.878 91.7111 211.878 114.352V114.352C211.878 115.173 211.878 115.583 211.802 115.923C211.536 117.102 210.616 118.022 209.437 118.287C209.097 118.364 208.687 118.364 207.866 118.364H165.499C164.336 118.364 163.755 118.364 163.153 118.629C162.192 119.051 161.297 120.402 161.284 121.452C161.275 122.11 161.435 122.486 161.754 123.238C164.478 129.661 170.878 134.413 180.353 134.413C185.048 134.413 190.35 133.046 194.601 130.644C196.278 129.696 197.116 129.222 197.598 129.123C198.652 128.907 199.294 129.056 200.144 129.716C200.533 130.017 200.959 130.64 201.81 131.887L204.694 136.109C205.265 136.945 205.55 137.363 205.689 137.861C205.924 138.705 205.717 139.844 205.2 140.55C204.894 140.967 204.551 141.208 203.864 141.689C196.975 146.518 187.661 148.886 178.347 148.886C157.283 148.886 141.377 134.7 141.377 112.489ZM177.201 90.7081C168.477 90.7081 163.582 95.7293 161.403 101.181C161.09 101.963 160.934 102.354 160.953 103.004C160.983 104.05 161.874 105.365 162.834 105.782C163.43 106.041 164.014 106.041 165.182 106.041H189.51C190.602 106.041 191.148 106.041 191.733 105.793C192.661 105.399 193.571 104.117 193.635 103.11C193.675 102.476 193.551 102.121 193.301 101.41C191.395 95.9715 186.541 90.7081 177.201 90.7081Z" fill="#475A74"/>
<path d="M278.446 140.181C279.685 141.957 280.304 142.845 280.414 143.566C280.62 144.915 279.928 146.241 278.704 146.844C278.05 147.166 276.967 147.166 274.802 147.166H265.333C264.652 147.166 264.312 147.166 263.996 147.101C263.414 146.979 262.878 146.695 262.451 146.279C262.221 146.055 262.03 145.773 261.65 145.209L250.875 129.242C249.909 127.812 249.427 127.097 248.879 126.747C247.857 126.096 246.55 126.093 245.525 126.74C244.976 127.087 244.49 127.8 243.519 129.227L232.625 145.224C232.244 145.784 232.053 146.064 231.823 146.287C231.397 146.699 230.863 146.981 230.283 147.101C229.968 147.166 229.63 147.166 228.953 147.166H219.559C217.406 147.166 216.329 147.166 215.676 146.846C214.455 146.246 213.761 144.925 213.961 143.579C214.067 142.86 214.678 141.973 215.901 140.201L233.868 114.143C234.36 113.429 234.606 113.072 234.743 112.699C234.996 112.007 234.997 111.249 234.746 110.557C234.611 110.183 234.366 109.825 233.875 109.11L217.295 84.9092C216.082 83.1386 215.476 82.2533 215.371 81.5349C215.175 80.1903 215.87 78.8729 217.09 78.2745C217.741 77.9548 218.815 77.9548 220.961 77.9548H230.51C231.192 77.9548 231.533 77.9548 231.85 78.0208C232.434 78.1427 232.971 78.4291 233.397 78.8461C233.628 79.0719 233.819 79.3553 234.199 79.9219L243.5 93.781C244.475 95.2328 244.962 95.9586 245.514 96.3104C246.544 96.9666 247.862 96.9635 248.889 96.3025C249.439 95.9482 249.923 95.2201 250.89 93.7639L260.076 79.9391C260.456 79.3676 260.646 79.0819 260.877 78.8542C261.304 78.4335 261.843 78.1445 262.43 78.0214C262.748 77.9548 263.091 77.9548 263.777 77.9548H273.283C275.436 77.9548 276.512 77.9548 277.164 78.2754C278.386 78.8753 279.079 80.1959 278.88 81.5419C278.774 82.2612 278.163 83.1474 276.941 84.9198L260.277 109.092C259.781 109.812 259.533 110.172 259.396 110.549C259.142 111.246 259.145 112.009 259.402 112.705C259.541 113.08 259.791 113.439 260.291 114.156L278.446 140.181Z" fill="#475A74"/>
<path d="M320.454 146.374C316.413 144.459 314.393 143.502 313.722 143.489C312.154 143.458 311.45 143.904 310.807 145.334C310.531 145.946 310.531 147.698 310.531 151.203V169.089C310.531 170.313 310.531 170.924 310.363 171.417C310.049 172.332 309.331 173.051 308.416 173.364C307.923 173.533 307.311 173.533 306.088 173.533H296.776C295.553 173.533 294.941 173.533 294.448 173.364C293.533 173.051 292.815 172.332 292.501 171.417C292.333 170.924 292.333 170.313 292.333 169.089V82.398C292.333 81.1747 292.333 80.563 292.501 80.0703C292.815 79.1554 293.533 78.4367 294.448 78.1235C294.941 77.9548 295.553 77.9548 296.776 77.9548H308.282C309.524 77.9548 310.531 78.9616 310.531 80.2036V80.2036C310.531 82.3382 313.417 83.4209 315.082 82.0849C319.821 78.2824 325.615 76.2353 331.882 76.2353C349.651 76.2353 362.547 89.4184 362.547 112.489C362.547 135.559 349.651 148.886 331.882 148.886C327.879 148.886 324.013 148.06 320.454 146.374ZM343.632 112.489C343.632 100.595 336.611 92.4276 326.15 92.4276C320.763 92.4276 314.653 95.3193 311.355 99.2245C311.199 99.4097 311.121 99.5023 310.999 99.6986C310.809 100.006 310.618 100.528 310.565 100.886C310.531 101.114 310.531 101.3 310.531 101.672V123.412C310.531 123.794 310.531 123.985 310.567 124.219C310.622 124.585 310.821 125.116 311.02 125.429C311.147 125.628 311.23 125.723 311.395 125.913C314.702 129.706 320.785 132.694 326.15 132.694C336.611 132.694 343.632 124.526 343.632 112.489Z" fill="#475A74"/>
<path d="M435.909 142.723C435.909 143.946 435.909 144.558 435.74 145.051C435.427 145.966 434.708 146.684 433.793 146.998C433.301 147.166 432.689 147.166 431.466 147.166H419.631C418.57 147.166 417.71 146.306 417.71 145.245V145.245C417.71 143.456 415.308 142.492 413.856 143.537C409.109 146.953 402.7 148.886 395.786 148.886C384.752 148.886 371.713 141.435 371.713 125.959C371.713 109.766 384.752 103.891 395.786 103.891C401.035 103.891 405.956 104.83 410.064 106.681C412.312 107.694 413.435 108.2 413.58 108.249C416.023 109.074 417.445 108.155 417.696 105.589C417.71 105.437 417.71 104.54 417.71 102.745V102.745C417.71 95.7234 411.692 91.138 402.521 91.138C396.867 91.138 391.543 92.7055 386.737 95.8405C385.19 96.8499 384.416 97.3546 383.888 97.4808C382.802 97.7405 381.958 97.5345 381.113 96.8034C380.703 96.4485 380.319 95.7688 379.551 94.4094L377.209 90.2622C376.728 89.4095 376.487 88.9832 376.387 88.5137C376.214 87.6969 376.429 86.6904 376.922 86.0162C377.205 85.6287 377.55 85.374 378.241 84.8646C386.23 78.9758 395.952 76.2353 405.674 76.2353C421.436 76.2353 435.909 82.5403 435.909 102.458V142.723ZM416.747 131.668C416.917 131.494 417.002 131.407 417.147 131.199C417.37 130.879 417.606 130.297 417.669 129.912C417.71 129.661 417.71 129.462 417.71 129.063V123.427C417.71 123.029 417.71 122.829 417.669 122.578C417.606 122.193 417.37 121.612 417.147 121.292C417.002 121.084 416.917 120.997 416.747 120.822C413.574 117.559 408.392 115.928 403.094 115.928C395.93 115.928 390.054 119.797 390.054 126.389C390.054 132.837 395.93 136.563 403.094 136.563C408.392 136.563 413.574 134.931 416.747 131.668Z" fill="#475A74"/>
<path d="M518.872 142.723C518.872 143.946 518.872 144.558 518.704 145.051C518.39 145.966 517.672 146.684 516.757 146.998C516.264 147.166 515.652 147.166 514.429 147.166H505.117C503.894 147.166 503.282 147.166 502.789 146.998C501.874 146.684 501.156 145.966 500.842 145.051C500.674 144.558 500.674 143.946 500.674 142.723V105.324C500.674 95.7234 495.658 92.4276 487.92 92.4276C481.41 92.4276 476.201 95.7403 473.046 99.4632C472.849 99.6962 472.75 99.8127 472.628 100.009C472.428 100.332 472.248 100.823 472.192 101.199C472.158 101.428 472.158 101.63 472.158 102.035V142.723C472.158 143.946 472.158 144.558 471.989 145.051C471.676 145.966 470.957 146.684 470.043 146.998C469.55 147.166 468.938 147.166 467.715 147.166H458.403C457.179 147.166 456.568 147.166 456.075 146.998C455.16 146.684 454.441 145.966 454.128 145.051C453.96 144.558 453.96 143.946 453.96 142.723V82.398C453.96 81.1747 453.96 80.563 454.128 80.0703C454.441 79.1554 455.16 78.4367 456.075 78.1235C456.568 77.9548 457.179 77.9548 458.403 77.9548H469.751C471.08 77.9548 472.158 79.0324 472.158 80.3618V80.3618C472.158 82.6098 475.182 83.816 476.991 82.4816C481.73 78.9863 488.328 76.2353 496.375 76.2353C511.564 76.2353 518.872 84.833 518.872 98.3027V142.723Z" fill="#475A74"/>
<path d="M533.757 140.461C533.089 139.973 532.755 139.729 532.465 139.328C531.969 138.642 531.76 137.572 531.961 136.75C532.079 136.27 532.336 135.853 532.851 135.02L535.941 130.02C536.763 128.69 537.174 128.025 537.578 127.693C538.427 126.999 539.202 126.818 540.27 127.067C540.78 127.186 541.567 127.679 543.141 128.666C548.587 132.08 556.163 134.843 562.735 134.843C570.616 134.843 574.342 132.12 574.342 127.822C574.342 122.949 568.324 121.23 560.442 119.654C548.549 117.361 533.216 114.495 533.216 98.0161C533.216 86.4092 543.39 76.2353 561.589 76.2353C571.656 76.2353 579.935 79.1806 586.336 83.4489C587.081 83.9458 587.454 84.1942 587.762 84.5859C588.298 85.2669 588.543 86.3118 588.366 87.1602C588.264 87.648 588.009 88.0917 587.499 88.9789L585.216 92.9512C584.36 94.4419 583.931 95.1872 583.533 95.533C582.659 96.2927 581.972 96.4712 580.838 96.2331C580.322 96.1247 579.39 95.5651 577.527 94.4457C573.256 91.8805 567.634 90.1349 561.732 90.1349C555.14 90.1349 550.842 92.5709 550.842 96.5832C550.842 100.882 556.287 102.458 564.025 104.035C575.918 106.327 591.824 109.48 591.824 126.675C591.824 139.428 581.077 148.886 561.875 148.886C551.295 148.886 541.046 145.786 533.757 140.461Z" fill="#475A74"/>
<path d="M614.259 67.7809C608.384 67.7809 603.368 62.9088 603.368 56.8904C603.368 50.872 608.384 46 614.259 46C620.277 46 625.149 50.872 625.149 56.8904C625.149 62.9088 620.277 67.7809 614.259 67.7809ZM623.43 142.723C623.43 143.946 623.43 144.558 623.261 145.051C622.948 145.966 622.229 146.684 621.314 146.998C620.821 147.166 620.21 147.166 618.986 147.166H609.674C608.451 147.166 607.839 147.166 607.346 146.998C606.432 146.684 605.713 145.966 605.4 145.051C605.231 144.558 605.231 143.946 605.231 142.723V82.398C605.231 81.1747 605.231 80.563 605.4 80.0703C605.713 79.1554 606.432 78.4367 607.346 78.1235C607.839 77.9548 608.451 77.9548 609.674 77.9548H618.986C620.21 77.9548 620.821 77.9548 621.314 78.1235C622.229 78.4367 622.948 79.1554 623.261 80.0703C623.43 80.563 623.43 81.1747 623.43 82.398V142.723Z" fill="#475A74"/>
<path d="M680.137 144.379C679.819 145.172 679.66 145.568 679.428 145.885C678.999 146.471 678.38 146.89 677.676 147.069C677.295 147.166 676.868 147.166 676.014 147.166H662.39C661.536 147.166 661.109 147.166 660.729 147.069C660.025 146.89 659.405 146.471 658.976 145.885C658.744 145.568 658.585 145.172 658.267 144.379L634.037 84.0541C633.392 82.4488 633.07 81.6462 633.088 80.9958C633.122 79.7824 633.855 78.6982 634.969 78.2142C635.565 77.9548 636.43 77.9548 638.16 77.9548H647.996C648.87 77.9548 649.307 77.9548 649.695 78.0556C650.412 78.2422 651.039 78.677 651.466 79.2829C651.696 79.6103 651.85 80.0195 652.157 80.8379L664.97 115.008C665.981 117.704 666.487 119.051 667.108 119.578C668.275 120.567 669.986 120.567 671.153 119.578C671.775 119.051 672.28 117.704 673.291 115.008L686.105 80.8379C686.412 80.0195 686.565 79.6103 686.795 79.2829C687.222 78.677 687.849 78.2422 688.566 78.0556C688.954 77.9548 689.391 77.9548 690.265 77.9548H700.244C701.974 77.9548 702.839 77.9548 703.436 78.2142C704.549 78.6982 705.282 79.7824 705.316 80.9958C705.335 81.6462 705.012 82.4488 704.367 84.054L680.137 144.379Z" fill="#475A74"/>
<path d="M710.499 112.489C710.499 92.4276 725.259 76.2353 746.323 76.2353C766.957 76.2353 781 91.7111 781 114.352V114.352C781 115.173 781 115.583 780.924 115.923C780.658 117.102 779.738 118.022 778.559 118.287C778.22 118.364 777.809 118.364 776.988 118.364H734.621C733.459 118.364 732.877 118.364 732.276 118.629C731.314 119.051 730.42 120.402 730.406 121.452C730.397 122.11 730.557 122.486 730.876 123.238C733.6 129.661 740 134.413 749.475 134.413C754.17 134.413 759.472 133.046 763.723 130.644C765.4 129.696 766.238 129.222 766.721 129.123C767.775 128.907 768.416 129.056 769.267 129.716C769.656 130.017 770.081 130.64 770.933 131.887L773.816 136.109C774.387 136.945 774.673 137.363 774.811 137.861C775.047 138.705 774.839 139.844 774.322 140.55C774.016 140.967 773.673 141.208 772.986 141.689C766.097 146.518 756.783 148.886 747.469 148.886C726.405 148.886 710.499 134.7 710.499 112.489ZM746.323 90.7081C737.599 90.7081 732.704 95.7293 730.525 101.181C730.212 101.963 730.056 102.354 730.075 103.004C730.106 104.05 730.996 105.365 731.956 105.782C732.552 106.041 733.136 106.041 734.304 106.041H758.633C759.724 106.041 760.27 106.041 760.855 105.793C761.784 105.399 762.693 104.117 762.757 103.11C762.797 102.476 762.673 102.121 762.424 101.41C760.517 95.9715 755.663 90.7081 746.323 90.7081Z" fill="#475A74"/>
<rect x="108.264" y="112.204" width="68.2124" height="19.3998" rx="9.69992" transform="rotate(-180 108.264 112.204)" fill="#659AEF"/>
<path d="M3.04455 112.204C1.31645 112.204 -0.0934317 110.802 0.00161009 109.077C0.354653 102.667 1.79093 96.3556 4.25679 90.4112C7.12288 83.5019 11.3238 77.2241 16.6196 71.936C21.9154 66.6479 28.2025 62.4531 35.1219 59.5912C42.0412 56.7293 49.4573 55.2563 56.9468 55.2563C64.4362 55.2564 71.8523 56.7294 78.7717 59.5913C85.691 62.4532 91.9781 66.6479 97.2739 71.936C102.57 77.2241 106.771 83.502 109.637 90.4113C112.103 96.3557 113.539 102.667 113.892 109.077C113.987 110.802 112.577 112.204 110.849 112.204L96.7218 112.204C94.9937 112.204 93.6067 110.801 93.4589 109.079C93.1383 105.345 92.2445 101.675 90.8033 98.2009C88.9616 93.7613 86.2623 89.7273 82.8594 86.3294C79.4565 82.9315 75.4167 80.2361 70.9706 78.3971C66.5245 76.5582 61.7592 75.6117 56.9467 75.6117C52.1343 75.6117 47.369 76.5582 42.9229 78.3971C38.4768 80.236 34.437 82.9314 31.0341 86.3294C27.6311 89.7273 24.9318 93.7612 23.0902 98.2008C21.649 101.675 20.7551 105.345 20.4345 109.079C20.2867 110.801 18.8998 112.204 17.1716 112.204H3.04455Z" fill="#3979E0"/>
<circle cx="21.2776" cy="137.993" r="13.1418" fill="#3979E0"/>
<circle cx="56.9475" cy="151.135" r="13.1418" fill="#FFA72B"/>
<circle cx="92.6184" cy="137.993" r="13.1418" fill="#6FDFB9"/>
</svg>
