<svg xmlns="http://www.w3.org/2000/svg" width="1280.164" height="263.1" viewBox="0 0 1280.164 263.1"><defs><style>.a{fill:#002f87;}.b{fill:#ffc600;}</style></defs><path class="a" d="M2.164,215.6a11.842,11.842,0,0,1-1.9-3.7,7,7,0,0,1,0-3.8,9.7,9.7,0,0,1,2.8-4.1l29.6-28.1a7.293,7.293,0,0,1,5.2-2.5,7.482,7.482,0,0,1,4,1.1,20.7,20.7,0,0,1,4,2.8c3.2,2.6,6.8,5.5,10.8,8.6a113.774,113.774,0,0,0,12.7,8.7,83.644,83.644,0,0,0,14.2,6.7,44.855,44.855,0,0,0,15.3,2.7,45.424,45.424,0,0,0,14.2-2,21.694,21.694,0,0,0,8.7-5.2,17.133,17.133,0,0,0,4.4-7.6,34.631,34.631,0,0,0,1.2-9.2,14.444,14.444,0,0,0-3.7-9.5,36.28,36.28,0,0,0-9.3-7.3,76.7,76.7,0,0,0-11.6-5.4c-4-1.5-7.6-2.8-10.7-3.9a252.262,252.262,0,0,1-36.2-15.5c-10.5-5.6-19.3-11.7-26.3-18.5a70.838,70.838,0,0,1-15.9-22.4,67.051,67.051,0,0,1-5.4-27.2,63.268,63.268,0,0,1,6.8-28.8,64.972,64.972,0,0,1,19-22.2,89.3,89.3,0,0,1,29.2-14.2,130.721,130.721,0,0,1,37.7-5.1c13.8,0,15.5.8,23.4,2.4a125.233,125.233,0,0,1,22.8,6.9,127.929,127.929,0,0,1,20.5,10.6,83.629,83.629,0,0,1,16.1,13.4q3.6,4.05,3.6,7.8c0,2.5-1.4,5.1-4.1,7.8l-26.2,27.9a7.8,7.8,0,0,1-5.5,2.7,7.163,7.163,0,0,1-4.4-1.3,50.7,50.7,0,0,1-4.5-3.3,91.7,91.7,0,0,0-19-13.4,48.926,48.926,0,0,0-22.4-5c-8.4,0-6.4.3-9.6.8a28.047,28.047,0,0,0-8.6,2.8,17.858,17.858,0,0,0-6.2,5.3,13.4,13.4,0,0,0-2.4,8.1,13.125,13.125,0,0,0,2.7,8.3,27.288,27.288,0,0,0,7.8,6.4,75.479,75.479,0,0,0,12.6,5.7c4.9,1.8,10.5,3.8,16.6,5.8,12.1,4,23.2,8.2,33.2,12.6a107.891,107.891,0,0,1,25.8,15.6,61.338,61.338,0,0,1,16.7,21.5q6,12.45,6,30.3a79.327,79.327,0,0,1-7.4,34,76.743,76.743,0,0,1-20.5,26.1,93.521,93.521,0,0,1-30.9,16.6,123.764,123.764,0,0,1-38.8,5.9c-14,0-17.5-1.2-26.2-3.5a136.341,136.341,0,0,1-25-9.3,149.468,149.468,0,0,1-41.7-30.4,45.746,45.746,0,0,1-2.9-3.6"/><path class="a" d="M212.564,13c0-5.1,2.5-7.7,7.5-7.7h51.1c5,0,7.5,2.6,7.5,7.7V251.7q0,7.5-7.5,7.5h-51.1q-7.5,0-7.5-7.5Z"/><path class="a" d="M372.464,114.3l-14.4,137.4a8.727,8.727,0,0,1-2.1,5.6c-1.1,1.2-2.9,1.9-5.4,1.9h-48.6a8.12,8.12,0,0,1-5.8-1.9c-1.4-1.2-1.9-3.1-1.7-5.6L319.964,13a9.264,9.264,0,0,1,2.1-5.7c1.1-1.3,2.9-2,5.4-2h59.8c2.5,0,4.2.6,5,1.9a23.544,23.544,0,0,1,2.5,5.8l46.6,153.5L487.964,13a25.421,25.421,0,0,1,2.5-5.8c.8-1.2,2.5-1.9,5-1.9h59.8c2.5,0,4.3.7,5.4,2a10.66,10.66,0,0,1,2.1,5.7l25.5,238.7c.2,2.5-.3,4.4-1.7,5.6a8.6,8.6,0,0,1-5.8,1.9h-48.6c-2.5,0-4.3-.6-5.4-1.9a9.986,9.986,0,0,1-2.1-5.6l-13.9-134-39.9,133.7c-1,3.1-2,5.2-3,6.2-1.1,1.1-2.9,1.6-5.3,1.6h-42.4c-2.5,0-4.3-.5-5.4-1.6s-2.1-3.1-2.9-6.2l-39.3-137.1Z"/><path class="a" d="M603.564,13a7.4,7.4,0,0,1,2.1-5.7,7.335,7.335,0,0,1,5.2-2h109.7a73.1,73.1,0,0,1,32.2,7.1,79.165,79.165,0,0,1,25,18.8,86.856,86.856,0,0,1,21.8,57.2,84.619,84.619,0,0,1-5.6,30.2,85.788,85.788,0,0,1-15.8,26.3,78.431,78.431,0,0,1-24.6,18.6,71.309,71.309,0,0,1-31.8,7h-52.3v81.2q0,7.5-7.8,7.5h-50.7c-4.9,0-7.3-2.5-7.3-7.5V13Zm65.9,46.7v57h36.8a24.508,24.508,0,0,0,11.1-2.4,23.645,23.645,0,0,0,8.2-6.4,29.445,29.445,0,0,0,5.1-9.2,31.324,31.324,0,0,0,1.8-10.5,29.212,29.212,0,0,0-1.8-10.2,29.948,29.948,0,0,0-5.2-9.2,27.745,27.745,0,0,0-8.2-6.6,23.163,23.163,0,0,0-11-2.5Z"/><path class="a" d="M810.764,13a8.421,8.421,0,0,1,1.8-5.2,6.39,6.39,0,0,1,5.5-2.4h113.4a73.34,73.34,0,0,1,33,7.3,83.983,83.983,0,0,1,25.5,19.2,90.45,90.45,0,0,1,16.6,27.3,87.821,87.821,0,0,1,5.9,31.4c0,10.7-1,13.5-3,20.1a84.994,84.994,0,0,1-8.5,19,97.017,97.017,0,0,1-13.2,17,89.475,89.475,0,0,1-16.9,13.8l49,91.1a5.556,5.556,0,0,1,.4,5c-.7,1.7-2.3,2.5-4.6,2.5h-61.6c-2.4,0-4.2-.5-5.3-1.5a18.857,18.857,0,0,1-3.9-5.6l-40.4-77.3h-27.6v76.9q0,7.5-7.5,7.5h-51.1c-4.9,0-7.3-2.5-7.3-7.5V12.9Zm65.9,45.3v61.9h37.9a28.489,28.489,0,0,0,12.4-2.7,33.637,33.637,0,0,0,9.6-6.9,31.253,31.253,0,0,0,8.4-21.2,29.033,29.033,0,0,0-2.2-11.2,33.8,33.8,0,0,0-6.3-10,31.061,31.061,0,0,0-9.6-7.2,27.794,27.794,0,0,0-12.3-2.8h-37.9Z"/><path class="a" d="M1149.164,1.2a130.95,130.95,0,1,0,131,131,131,131,0,0,0-131-131"/><path class="b" d="M1224.864,144.6l-9.9,3.1c-13.1,5.8-22.5,22.1-20.9,36.3l2.3,10.1c.8,7.3-2.5,9.4-5.9,11.4s-6.9,3.8-12.8-.6l-7.6-7c-11.5-8.4-30.4-8.4-41.9,0l-7.6,7c-5.8,4.3-9.2,2.5-12.6.7-3.5-1.9-6.9-4-6.1-11.5l2.3-10.1c1.5-14.2-7.9-30.5-20.9-36.3l-9.9-3.1c-6.7-3-6.9-6.9-6.9-10.8s.2-7.8,6.9-10.8l9.9-3.1c13.1-5.8,22.5-22.1,20.9-36.3l-2.3-10.1c-.8-7.3,2.5-9.4,5.9-11.4s6.9-3.8,12.8.6l7.6,7c11.5,8.4,30.4,8.4,41.9,0l7.6-7c5.9-4.3,9.4-2.5,12.8-.6,3.4,2,6.7,4.1,5.9,11.4l-2.3,10.1c-1.5,14.2,7.9,30.5,20.9,36.3l9.9,3.1c6.7,3,6.9,6.9,6.9,10.8s-.2,7.8-6.9,10.8"/><path class="a" d="M1268.364,6.1a13.134,13.134,0,0,1,4,9.7,13.45,13.45,0,0,1-4.1,9.8,13.551,13.551,0,0,1-23.2-9.7,12.963,12.963,0,0,1,4.3-9.9,13.305,13.305,0,0,1,9.4-3.7,13.455,13.455,0,0,1,9.7,4m-9.8-1.9a10.665,10.665,0,0,0-8,3.4,10.886,10.886,0,0,0-3.3,7.9,11.509,11.509,0,0,0,3.3,8.1,10.948,10.948,0,0,0,8,3.3,10.725,10.725,0,0,0,7.9-3.3,10.948,10.948,0,0,0,3.3-8,10.725,10.725,0,0,0-3.3-7.9,10.665,10.665,0,0,0-8-3.4m-1.9,13.4v5.4h-4V8.2h7.3a5.571,5.571,0,0,1,3,.8,3.784,3.784,0,0,1,2,3.6c0,1.7-.4,2.2-1.1,2.8a4.608,4.608,0,0,1-2.6,1,4.124,4.124,0,0,1,2.1.9,3.98,3.98,0,0,1,1.3,3.4v1.8a.6.6,0,0,0,.1.4v.4h-3.6a10.611,10.611,0,0,1-.2-2.1,7.753,7.753,0,0,0-.2-1.9,1.981,1.981,0,0,0-1.1-1.1,4.141,4.141,0,0,0-1.4-.2h-1.7Zm1.5-2.7a3.8,3.8,0,0,0,2.2-.6,2.2,2.2,0,0,0,.8-1.8,1.709,1.709,0,0,0-1.2-1.7,6.713,6.713,0,0,0-2.3-.3h-1v4.4Z"/></svg>