<svg width="211" height="65" viewBox="0 0 211 65" fill="none" xmlns="http://www.w3.org/2000/svg">
<g clip-path="url(#clip0_184_3495)">
<path d="M201.235 6.11182C197.38 2.26669 192.665 0 187.55 0H149.99C155.095 0 159.82 2.26669 163.675 6.11182H201.235Z" fill="#282B62"/>
<path d="M163.675 58.8882C159.82 62.7333 155.104 65 149.99 65H187.55C192.655 65 197.38 62.7333 201.235 58.8882H163.675Z" fill="#282B62"/>
<path d="M173.44 32.5046C173.44 33.5324 173.403 34.551 173.338 35.5605H210.898C210.963 34.551 211 33.5324 211 32.5046C211 31.4768 210.963 30.4581 210.898 29.4487H173.338C173.403 30.4581 173.44 31.4768 173.44 32.5046Z" fill="#282B62"/>
<path d="M172.93 25.7412H210.49C210.166 23.6213 209.694 21.5749 209.091 19.6294H171.531C172.133 21.5749 172.615 23.6213 172.93 25.7412Z" fill="#282B62"/>
<path d="M170.16 15.9311H207.72C206.766 13.7103 205.626 11.6547 204.338 9.81928H166.778C168.075 11.6547 169.215 13.7103 170.16 15.9311Z" fill="#282B62"/>
<path d="M172.93 39.2588C172.606 41.3787 172.133 43.4251 171.531 45.3706H209.091C209.694 43.4251 210.175 41.3787 210.49 39.2588H172.93Z" fill="#282B62"/>
<path d="M170.16 49.0781C169.206 51.2989 168.066 53.3545 166.778 55.1899H204.338C205.636 53.3545 206.775 51.2989 207.72 49.0781H170.16Z" fill="#282B62"/>
<path d="M20.4482 33.0644C20.4482 38.0291 16.6125 41.7824 10.6088 41.7824H0.676758V9.81928H10.7478C16.1678 9.81928 19.5495 13.6644 19.5495 18.1336C19.5495 21.1344 17.9652 23.9058 15.2135 25.3374C18.5118 26.7231 20.4482 29.6322 20.4482 33.0736V33.0644ZM7.21781 15.0868V22.8688H8.83918C11.5445 22.8688 13.1289 21.2629 13.1289 18.9778C13.1289 16.6928 11.5445 15.0868 8.83918 15.0868H7.21781ZM14.0368 32.2201C14.0368 29.7148 12.3228 27.9712 9.33949 27.9712H7.21781V36.5149H9.33949C12.3228 36.5149 14.0368 34.7713 14.0368 32.2201Z" fill="#282B62"/>
<path d="M42.3417 35.6614V41.7916H22.9316V9.81928H29.482V35.6614H42.351H42.3417Z" fill="#282B62"/>
<path d="M42.4805 25.7779C42.4805 16.8121 49.9295 9.8101 59.4539 9.8101C68.9782 9.8101 76.4736 16.8029 76.4736 25.7779C76.4736 34.7529 69.0246 41.7824 59.4539 41.7824C49.8832 41.7824 42.4805 34.7896 42.4805 25.7779ZM69.9325 25.7779C69.9325 20.1158 65.3742 15.6925 59.4631 15.6925C53.5521 15.6925 49.0308 20.1158 49.0308 25.7779C49.0308 31.4401 53.5891 35.9092 59.4631 35.9092C65.3371 35.9092 69.9325 31.4859 69.9325 25.7779Z" fill="#282B62"/>
<path d="M78.8818 29.9167V9.81928H85.4322V29.7515C85.4322 33.2571 87.4149 35.4412 90.7132 35.4412C94.0115 35.4412 96.0405 33.2479 96.0405 29.7515V9.81928H102.591V29.9259C102.591 37.194 97.8935 41.7916 90.7132 41.7916C83.5328 41.7916 78.8818 37.194 78.8818 29.9259V29.9167Z" fill="#282B62"/>
<path d="M158.246 15.9403H149.981V41.7824H143.431V15.9403H135.213V9.8101H158.236V15.9403H158.246Z" fill="#282B62"/>
<path d="M111.745 23.2726V41.7824H105.287V9.81928L125.966 28.2924V9.81928H132.378V41.7916L111.745 23.2818V23.2726Z" fill="#282B62"/>
<path d="M9.5434 48.9221C8.53352 47.5914 7.34761 47.4629 6.73612 47.4629C4.92945 47.4629 4.36429 48.5825 4.36429 49.4543C4.36429 49.8673 4.494 50.2435 4.90166 50.6014C5.31858 50.9869 5.88374 51.1888 6.96774 51.5742C8.31116 52.033 9.57119 52.4919 10.4514 53.2811C11.2204 53.9694 11.9245 55.1165 11.9245 56.8601C11.9245 60.1821 9.49708 62.458 5.93933 62.458C2.77072 62.458 0.908466 60.54 0.00976562 59.2369L2.20556 57.1721C3.03014 58.8331 4.60518 59.448 5.81889 59.448C7.33834 59.448 8.47793 58.5303 8.47793 57.0987C8.47793 56.4838 8.2741 55.9975 7.81085 55.5661C7.16231 54.9788 6.1339 54.6484 5.15181 54.3181C4.25311 54.0152 3.16911 53.6023 2.28894 52.8406C1.72378 52.3542 0.917731 51.409 0.917731 49.6746C0.917731 47.1693 2.62248 44.664 6.43964 44.664C7.52364 44.664 9.56193 44.8659 11.313 46.6554L9.56193 48.9312L9.5434 48.9221Z" fill="#575756"/>
<path d="M17.5854 51.6293H24.8583V45.0402H28.2123V62.0726H24.8583V54.4833H17.5854V62.0726H14.2314V45.0402H17.5854V51.6293Z" fill="#575756"/>
<path d="M34.2162 45.0402V55.7405C34.2162 57.0436 34.6517 57.8328 35.0408 58.2733C35.5318 58.8607 36.4305 59.448 37.774 59.448C39.1174 59.448 40.0161 58.8607 40.5071 58.2733C40.8962 57.842 41.3317 57.0436 41.3317 55.7405V45.0402H44.6856V55.4652C44.6856 57.0712 44.4262 58.7046 43.3978 60.0078C42.1563 61.6137 39.9975 62.458 37.774 62.458C35.5504 62.458 33.3916 61.6137 32.1501 60.0078C31.1217 58.7046 30.8623 57.0712 30.8623 55.4652V45.0402H34.2162Z" fill="#575756"/>
<path d="M54.3766 47.8943V62.0726H51.0227V47.8943H47.1592V45.0311H58.2493V47.8943H54.3858H54.3766Z" fill="#575756"/>
<path d="M67.3756 47.8943V62.0726H64.0217V47.8943H60.1582V45.0311H71.2484V47.8943H67.3849H67.3756Z" fill="#575756"/>
<path d="M83.1533 47.8942H76.9643V51.7027H82.8938V54.5659H76.9643V59.2185H83.1533V62.0817H73.6104V45.0494H83.1533V47.9126V47.8942Z" fill="#575756"/>
<path d="M90.6022 45.0402C92.9741 45.0402 94.1878 45.6551 94.9846 46.3158C96.3002 47.4171 96.6893 48.867 96.6893 50.1426C96.6893 51.8036 96.0222 53.2627 94.6788 54.1529C94.2434 54.4557 93.6226 54.7402 92.798 54.8962L98.1624 62.0726H93.9839L89.3978 55.2266H88.9809V62.0726H85.627V45.0402H90.6022ZM88.9809 52.8773H89.9352C90.5837 52.8773 93.2335 52.8039 93.2335 50.2986C93.2335 47.7933 90.6022 47.7474 89.9815 47.7474H88.9716V52.8773H88.9809Z" fill="#575756"/>
<path d="M108.15 48.9221C107.14 47.5914 105.954 47.4629 105.343 47.4629C103.536 47.4629 102.971 48.5825 102.971 49.4543C102.971 49.8673 103.1 50.2435 103.508 50.6014C103.925 50.9869 104.49 51.1888 105.574 51.5742C106.918 52.033 108.178 52.4919 109.058 53.2811C109.827 53.9694 110.531 55.1165 110.531 56.8601C110.531 60.1821 108.104 62.458 104.546 62.458C101.377 62.458 99.5149 60.54 98.6162 59.2369L100.812 57.1721C101.637 58.8331 103.212 59.448 104.425 59.448C105.945 59.448 107.084 58.5303 107.084 57.0987C107.084 56.4838 106.881 55.9975 106.417 55.5661C105.769 54.9788 104.74 54.6484 103.758 54.3181C102.86 54.0152 101.776 53.6023 100.895 52.8406C100.33 52.3542 99.5242 51.409 99.5242 49.6746C99.5242 47.1693 101.229 44.664 105.046 44.664C106.13 44.664 108.168 44.8659 109.919 46.6554L108.168 48.9312L108.15 48.9221Z" fill="#575756"/>
</g>
<defs>
<clipPath id="clip0_184_3495">
<rect width="211" height="65" fill="white"/>
</clipPath>
</defs>
</svg>
